<svg width="72" height="72" viewBox="0 0 72 72" fill="none" xmlns="http://www.w3.org/2000/svg">
<g filter="url(#filter0_dd_24082_8690)">
<path d="M12 26C12 12.7452 22.7452 2 36 2C49.2548 2 60 12.7452 60 26C60 39.2548 49.2548 50 36 50C22.7452 50 12 39.2548 12 26Z" fill="url(#paint0_linear_24082_8690)" shape-rendering="crispEdges"/>
<path d="M30 26C30 22.6863 32.6863 20 36 20C39.3137 20 42 22.6863 42 26C42 29.3137 39.3137 32 36 32C32.6863 32 30 29.3137 30 26Z" fill="white"/>
</g>
<defs>
<filter id="filter0_dd_24082_8690" x="0" y="0" width="72" height="72" filterUnits="userSpaceOnUse" color-interpolation-filters="sRGB">
<feFlood flood-opacity="0" result="BackgroundImageFix"/>
<feColorMatrix in="SourceAlpha" type="matrix" values="0 0 0 0 0 0 0 0 0 0 0 0 0 0 0 0 0 0 127 0" result="hardAlpha"/>
<feMorphology radius="4" operator="erode" in="SourceAlpha" result="effect1_dropShadow_24082_8690"/>
<feOffset dy="4"/>
<feGaussianBlur stdDeviation="3"/>
<feComposite in2="hardAlpha" operator="out"/>
<feColorMatrix type="matrix" values="0 0 0 0 0 0 0 0 0 0 0 0 0 0 0 0 0 0 0.1 0"/>
<feBlend mode="normal" in2="BackgroundImageFix" result="effect1_dropShadow_24082_8690"/>
<feColorMatrix in="SourceAlpha" type="matrix" values="0 0 0 0 0 0 0 0 0 0 0 0 0 0 0 0 0 0 127 0" result="hardAlpha"/>
<feMorphology radius="3" operator="erode" in="SourceAlpha" result="effect2_dropShadow_24082_8690"/>
<feOffset dy="10"/>
<feGaussianBlur stdDeviation="7.5"/>
<feComposite in2="hardAlpha" operator="out"/>
<feColorMatrix type="matrix" values="0 0 0 0 0 0 0 0 0 0 0 0 0 0 0 0 0 0 0.1 0"/>
<feBlend mode="normal" in2="effect1_dropShadow_24082_8690" result="effect2_dropShadow_24082_8690"/>
<feBlend mode="normal" in="SourceGraphic" in2="effect2_dropShadow_24082_8690" result="shape"/>
</filter>
<linearGradient id="paint0_linear_24082_8690" x1="12" y1="2" x2="60" y2="50" gradientUnits="userSpaceOnUse">
<stop stop-color="#071D39"/>
<stop offset="1" stop-color="#AD996F"/>
</linearGradient>
</defs>
</svg>
